<mxfile host="app.diagrams.net" modified="2024-02-04T21:52:05.164Z" agent="Mozilla/5.0 (Windows NT 10.0; Win64; x64) AppleWebKit/537.36 (KHTML, like Gecko) Chrome/121.0.0.0 Safari/537.36" etag="4Cu7hwCTolXh3LREEFqi" version="23.1.1" type="github">
  <diagram id="C5RBs43oDa-KdzZeNtuy" name="Page-1">
    <mxGraphModel dx="1434" dy="1975" grid="1" gridSize="10" guides="1" tooltips="1" connect="1" arrows="1" fold="1" page="1" pageScale="1" pageWidth="827" pageHeight="1169" math="0" shadow="0">
      <root>
        <mxCell id="WIyWlLk6GJQsqaUBKTNV-0" />
        <mxCell id="WIyWlLk6GJQsqaUBKTNV-1" parent="WIyWlLk6GJQsqaUBKTNV-0" />
        <mxCell id="xZwolNkX2AqnauPJ-UXD-3" value="" style="edgeStyle=orthogonalEdgeStyle;rounded=0;orthogonalLoop=1;jettySize=auto;html=1;" edge="1" parent="WIyWlLk6GJQsqaUBKTNV-1" source="xZwolNkX2AqnauPJ-UXD-0" target="xZwolNkX2AqnauPJ-UXD-2">
          <mxGeometry relative="1" as="geometry" />
        </mxCell>
        <mxCell id="xZwolNkX2AqnauPJ-UXD-0" value="User Select The &lt;b&gt;FarsiChange &lt;/b&gt;Checkout" style="rounded=1;whiteSpace=wrap;html=1;" vertex="1" parent="WIyWlLk6GJQsqaUBKTNV-1">
          <mxGeometry x="330" y="100" width="140" height="40" as="geometry" />
        </mxCell>
        <mxCell id="xZwolNkX2AqnauPJ-UXD-5" value="" style="edgeStyle=orthogonalEdgeStyle;rounded=0;orthogonalLoop=1;jettySize=auto;html=1;" edge="1" parent="WIyWlLk6GJQsqaUBKTNV-1" source="xZwolNkX2AqnauPJ-UXD-2" target="xZwolNkX2AqnauPJ-UXD-4">
          <mxGeometry relative="1" as="geometry" />
        </mxCell>
        <mxCell id="xZwolNkX2AqnauPJ-UXD-2" value="Order will be created on the system &amp;amp; &lt;b&gt;A NEW RANDOM&lt;/b&gt;&lt;br&gt;order number will assign to the amount&lt;br&gt;&lt;b&gt;OrderNumber: &quot;no1231&quot;&lt;br&gt;Amount: 17.0 USD&lt;/b&gt;" style="whiteSpace=wrap;html=1;rounded=1;" vertex="1" parent="WIyWlLk6GJQsqaUBKTNV-1">
          <mxGeometry x="310" y="180" width="180" height="120" as="geometry" />
        </mxCell>
        <mxCell id="xZwolNkX2AqnauPJ-UXD-7" value="" style="edgeStyle=orthogonalEdgeStyle;rounded=0;orthogonalLoop=1;jettySize=auto;html=1;" edge="1" parent="WIyWlLk6GJQsqaUBKTNV-1" source="xZwolNkX2AqnauPJ-UXD-4" target="xZwolNkX2AqnauPJ-UXD-6">
          <mxGeometry relative="1" as="geometry" />
        </mxCell>
        <mxCell id="xZwolNkX2AqnauPJ-UXD-4" value="Order goes to &lt;b&gt;Pending&lt;/b&gt;&lt;br&gt;(System waits to receive fail or success CallBack)" style="whiteSpace=wrap;html=1;rounded=1;" vertex="1" parent="WIyWlLk6GJQsqaUBKTNV-1">
          <mxGeometry x="335" y="370" width="130" height="90" as="geometry" />
        </mxCell>
        <mxCell id="xZwolNkX2AqnauPJ-UXD-9" value="" style="edgeStyle=orthogonalEdgeStyle;rounded=0;orthogonalLoop=1;jettySize=auto;html=1;" edge="1" parent="WIyWlLk6GJQsqaUBKTNV-1" source="xZwolNkX2AqnauPJ-UXD-6" target="xZwolNkX2AqnauPJ-UXD-8">
          <mxGeometry relative="1" as="geometry" />
        </mxCell>
        <mxCell id="xZwolNkX2AqnauPJ-UXD-23" value="&lt;font style=&quot;font-size: 14px;&quot;&gt;YES&lt;/font&gt;" style="edgeLabel;html=1;align=center;verticalAlign=middle;resizable=0;points=[];" vertex="1" connectable="0" parent="xZwolNkX2AqnauPJ-UXD-9">
          <mxGeometry x="-0.1494" y="-1" relative="1" as="geometry">
            <mxPoint as="offset" />
          </mxGeometry>
        </mxCell>
        <mxCell id="xZwolNkX2AqnauPJ-UXD-15" value="" style="edgeStyle=orthogonalEdgeStyle;rounded=0;orthogonalLoop=1;jettySize=auto;html=1;" edge="1" parent="WIyWlLk6GJQsqaUBKTNV-1" source="xZwolNkX2AqnauPJ-UXD-6" target="xZwolNkX2AqnauPJ-UXD-14">
          <mxGeometry relative="1" as="geometry" />
        </mxCell>
        <mxCell id="xZwolNkX2AqnauPJ-UXD-24" value="&lt;font style=&quot;font-size: 14px;&quot;&gt;NO&lt;/font&gt;" style="edgeLabel;html=1;align=center;verticalAlign=middle;resizable=0;points=[];" vertex="1" connectable="0" parent="xZwolNkX2AqnauPJ-UXD-15">
          <mxGeometry x="-0.0737" relative="1" as="geometry">
            <mxPoint y="1" as="offset" />
          </mxGeometry>
        </mxCell>
        <mxCell id="xZwolNkX2AqnauPJ-UXD-6" value="Was The Payment Successful?" style="rhombus;whiteSpace=wrap;html=1;rounded=1;" vertex="1" parent="WIyWlLk6GJQsqaUBKTNV-1">
          <mxGeometry x="335" y="540" width="130" height="145" as="geometry" />
        </mxCell>
        <mxCell id="xZwolNkX2AqnauPJ-UXD-13" value="" style="edgeStyle=orthogonalEdgeStyle;rounded=0;orthogonalLoop=1;jettySize=auto;html=1;" edge="1" parent="WIyWlLk6GJQsqaUBKTNV-1" source="xZwolNkX2AqnauPJ-UXD-8" target="xZwolNkX2AqnauPJ-UXD-12">
          <mxGeometry relative="1" as="geometry" />
        </mxCell>
        <mxCell id="xZwolNkX2AqnauPJ-UXD-8" value="Trigger CallBack API with &lt;b&gt;OrderNumber &lt;/b&gt;and the &lt;b&gt;Amount&lt;/b&gt;" style="whiteSpace=wrap;html=1;rounded=1;" vertex="1" parent="WIyWlLk6GJQsqaUBKTNV-1">
          <mxGeometry x="108" y="582.5" width="140" height="60" as="geometry" />
        </mxCell>
        <mxCell id="xZwolNkX2AqnauPJ-UXD-29" value="" style="edgeStyle=orthogonalEdgeStyle;rounded=0;orthogonalLoop=1;jettySize=auto;html=1;" edge="1" parent="WIyWlLk6GJQsqaUBKTNV-1" source="xZwolNkX2AqnauPJ-UXD-12" target="xZwolNkX2AqnauPJ-UXD-28">
          <mxGeometry relative="1" as="geometry" />
        </mxCell>
        <mxCell id="xZwolNkX2AqnauPJ-UXD-12" value="&lt;b&gt;Withdraw &lt;/b&gt;or &lt;b&gt;Deposit &lt;/b&gt;was &lt;b&gt;SUCCESSFUL&lt;/b&gt;" style="whiteSpace=wrap;html=1;rounded=1;fillColor=#ffff88;strokeColor=#36393d;" vertex="1" parent="WIyWlLk6GJQsqaUBKTNV-1">
          <mxGeometry x="118" y="442.5" width="120" height="60" as="geometry" />
        </mxCell>
        <mxCell id="xZwolNkX2AqnauPJ-UXD-22" value="" style="edgeStyle=orthogonalEdgeStyle;rounded=0;orthogonalLoop=1;jettySize=auto;html=1;" edge="1" parent="WIyWlLk6GJQsqaUBKTNV-1" source="xZwolNkX2AqnauPJ-UXD-14" target="xZwolNkX2AqnauPJ-UXD-21">
          <mxGeometry relative="1" as="geometry" />
        </mxCell>
        <mxCell id="xZwolNkX2AqnauPJ-UXD-14" value="Trigger CallBack to the system and fail the &amp;nbsp;&lt;b&gt;OrderNumber&amp;nbsp;&lt;/b&gt;" style="whiteSpace=wrap;html=1;rounded=1;" vertex="1" parent="WIyWlLk6GJQsqaUBKTNV-1">
          <mxGeometry x="550" y="582.5" width="140" height="60" as="geometry" />
        </mxCell>
        <mxCell id="xZwolNkX2AqnauPJ-UXD-20" style="edgeStyle=orthogonalEdgeStyle;rounded=0;orthogonalLoop=1;jettySize=auto;html=1;exitX=0.5;exitY=1;exitDx=0;exitDy=0;entryX=0.5;entryY=0;entryDx=0;entryDy=0;" edge="1" parent="WIyWlLk6GJQsqaUBKTNV-1" source="xZwolNkX2AqnauPJ-UXD-19" target="xZwolNkX2AqnauPJ-UXD-0">
          <mxGeometry relative="1" as="geometry" />
        </mxCell>
        <mxCell id="xZwolNkX2AqnauPJ-UXD-19" value="&lt;font style=&quot;font-size: 15px;&quot;&gt;User Wants To&amp;nbsp;&lt;b style=&quot;border-color: var(--border-color);&quot;&gt;Deposit&amp;nbsp;&lt;/b&gt;or&amp;nbsp;&lt;br&gt;&lt;b style=&quot;border-color: var(--border-color);&quot;&gt;Withdraw&amp;nbsp;&lt;/b&gt;on PipWise&lt;/font&gt;" style="ellipse;whiteSpace=wrap;html=1;" vertex="1" parent="WIyWlLk6GJQsqaUBKTNV-1">
          <mxGeometry x="320" y="-70" width="160" height="120" as="geometry" />
        </mxCell>
        <mxCell id="xZwolNkX2AqnauPJ-UXD-31" style="edgeStyle=orthogonalEdgeStyle;rounded=0;orthogonalLoop=1;jettySize=auto;html=1;exitX=0.5;exitY=0;exitDx=0;exitDy=0;entryX=0.5;entryY=1;entryDx=0;entryDy=0;" edge="1" parent="WIyWlLk6GJQsqaUBKTNV-1" source="xZwolNkX2AqnauPJ-UXD-21" target="xZwolNkX2AqnauPJ-UXD-30">
          <mxGeometry relative="1" as="geometry" />
        </mxCell>
        <mxCell id="xZwolNkX2AqnauPJ-UXD-21" value="&lt;b style=&quot;border-color: var(--border-color);&quot;&gt;Withdraw&amp;nbsp;&lt;/b&gt;or&amp;nbsp;&lt;b style=&quot;border-color: var(--border-color);&quot;&gt;Deposit&lt;br&gt;&amp;nbsp;&lt;/b&gt;is &lt;b&gt;FAILED&lt;/b&gt;" style="whiteSpace=wrap;html=1;rounded=1;fillColor=#a0522d;fontColor=#ffffff;strokeColor=#6D1F00;" vertex="1" parent="WIyWlLk6GJQsqaUBKTNV-1">
          <mxGeometry x="560" y="442.5" width="120" height="60" as="geometry" />
        </mxCell>
        <mxCell id="xZwolNkX2AqnauPJ-UXD-28" value="&lt;b&gt;DONE!&lt;/b&gt;&lt;br&gt;The latest &lt;b&gt;OrderNumber &lt;/b&gt;will not charge anymore&lt;br style=&quot;border-color: var(--border-color);&quot;&gt;(Only charge one time and can not be used anymore)" style="ellipse;whiteSpace=wrap;html=1;rounded=1;" vertex="1" parent="WIyWlLk6GJQsqaUBKTNV-1">
          <mxGeometry x="100" y="210" width="156" height="145" as="geometry" />
        </mxCell>
        <mxCell id="xZwolNkX2AqnauPJ-UXD-30" value="&lt;b style=&quot;border-color: var(--border-color);&quot;&gt;OrderNumber&amp;nbsp;&lt;/b&gt;is failed and expired&lt;br style=&quot;border-color: var(--border-color);&quot;&gt;(Can not be used anymore)" style="ellipse;whiteSpace=wrap;html=1;rounded=1;" vertex="1" parent="WIyWlLk6GJQsqaUBKTNV-1">
          <mxGeometry x="542" y="210" width="156" height="145" as="geometry" />
        </mxCell>
      </root>
    </mxGraphModel>
  </diagram>
</mxfile>
